# xmcd CD database file
#
# Track frame offsets:
#	150
#	15757
#	27207
#	38955
#	50550
#	79365
#	87437
#	103330
#	121172
#	135837
#	145420
#	162832
#	175177
#	202022
#	211672
#	223355
#	235615
#	248585
#	260072
#	276590
#	285472
#	296912
#	317585
#	336690
#
# Disc length: 4651 seconds
#
# Revision: 0
# Processed by: cddbd v1.5PL3 Copyright (c) Steve Scherf et al.
# Submitted via: CDex 1.51
#
DISCID=6f122918
DTITLE=Ole Paus/Ketil Bjørnstad - Lise Madsen, Moses og de andre
DYEAR=1975
DGENRE=Jazz
TTITLE0=Overture
TTITLE1=Lise Madsen
TTITLE2=Dildo nr. 3
TTITLE3=Himmelen vet hva hun het
TTITLE4=Piken og do-do fuglen
TTITLE5=Klesvask
TTITLE6=Annas hus - en bygdevise
TTITLE7=Kvernskjær
TTITLE8=Fanden i tårnet
TTITLE9=Stauder
TTITLE10=Borgere og banditter
TTITLE11=Smygeren
TTITLE12=Skjulestedet
TTITLE13=Liljen, grisen, eller: spurde de meg
TTITLE14=Adam og Eva
TTITLE15=Vrakgods
TTITLE16=Aron
TTITLE17=Musling
TTITLE18=Farvel, Roar Wik
TTITLE19=Signelill
TTITLE20=Hitleryngel
TTITLE21=Godtfolk
TTITLE22=Veisangen
TTITLE23=Til slutt
EXTD=YEAR: 1975
EXTT0=
EXTT1=
EXTT2=
EXTT3=
EXTT4=
EXTT5=
EXTT6=
EXTT7=
EXTT8=
EXTT9=
EXTT10=
EXTT11=
EXTT12=
EXTT13=
EXTT14=
EXTT15=
EXTT16=
EXTT17=
EXTT18=
EXTT19=
EXTT20=
EXTT21=
EXTT22=
EXTT23=
PLAYORDER=
